<svg width="120" height="120" viewBox="0 0 120 120" fill="none" xmlns="http://www.w3.org/2000/svg">
<path d="M117.15 5.73633H111.412V74.2863H117.15V5.73633Z" fill="white"/>
<path d="M8.54961 114.3V108.6H2.84961V120H117.15V108.6H111.412V114.3H8.54961Z" fill="white"/>
<path d="M111.411 102.863H105.711V108.601H111.411V102.863Z" fill="white"/>
<path d="M105.712 97.1631H100.012V102.863H105.712V97.1631Z" fill="white"/>
<path d="M25.7219 85.7256V91.4256H94.2719V85.7256H77.1344V80.0256H111.409V74.2881H8.54688V80.0256H42.8594V85.7256H25.7219ZM48.5594 80.0256H71.4344V85.7256H48.5594V80.0256Z" fill="white"/>
<path d="M100.011 91.4248H94.2734V97.1623H100.011V91.4248Z" fill="white"/>
<path d="M105.711 11.4365H14.2861V68.5865H105.711V11.4365ZM100.011 62.849H19.9861V17.1365H100.011V62.849Z" fill="white"/>
<path d="M94.2752 102.863H88.5752V108.601H94.2752V102.863Z" fill="white"/>
<path d="M88.5744 97.1631H82.8369V102.863H88.5744V97.1631Z" fill="white"/>
<path d="M71.4357 40.0125H77.1357V45.7125H82.8357V40.0125H88.5732V34.3125H94.2732V28.575H88.5732V22.875H82.8357V28.575H77.1357V22.875H71.4357V28.575H65.6982V34.3125H71.4357V40.0125Z" fill="white"/>
<path d="M77.1365 102.863H71.4365V108.601H77.1365V102.863Z" fill="white"/>
<path d="M71.4357 97.1631H65.6982V102.863H71.4357V97.1631Z" fill="white"/>
<path d="M59.9992 102.863H54.2617V108.601H59.9992V102.863Z" fill="white"/>
<path d="M54.2635 97.1631H48.5635V102.863H54.2635V97.1631Z" fill="white"/>
<path d="M48.5613 102.863H42.8613V108.601H48.5613V102.863Z" fill="white"/>
<path d="M37.1248 97.1631H31.4248V102.863H37.1248V97.1631Z" fill="white"/>
<path d="M31.4227 102.863H25.7227V108.601H31.4227V102.863Z" fill="white"/>
<path d="M25.7258 91.4248H19.9883V97.1623H25.7258V91.4248Z" fill="white"/>
<path d="M19.9861 97.1631H14.2861V102.863H19.9861V97.1631Z" fill="white"/>
<path d="M111.409 0H8.54688V5.7375H111.409V0Z" fill="white"/>
<path d="M14.2844 102.863H8.54688V108.601H14.2844V102.863Z" fill="white"/>
<path d="M8.54961 5.73633H2.84961V74.2863H8.54961V5.73633Z" fill="white"/>
</svg>
